<svg
    xmlns="http://www.w3.org/2000/svg"
    width="30"
    height="30"
    viewBox="0 0 30 30"
    fill="none"
  >
    <path
      d="M11.25 17.8125C12.1129 17.8125 12.8125 17.1129 12.8125 16.25C12.8125 15.3871 12.1129 14.6875 11.25 14.6875C10.3871 14.6875 9.6875 15.3871 9.6875 16.25C9.6875 17.1129 10.3871 17.8125 11.25 17.8125Z"
      fill="white"
    />
    <path
      d="M25.9625 10.725L24.8125 13.2375C24.925 13.8125 25 14.4 25 15C25 20.5125 20.5125 25 15 25C9.4875 25 5 20.5125 5 15C5 14.9375 5.0125 14.875 5 14.825C8.25 13.6 10.8625 11.0875 12.175 7.8875C13.3474 9.3289 14.8264 10.4908 16.5043 11.2887C18.1823 12.0866 20.017 12.5004 21.875 12.5C22.4375 12.5 22.9875 12.45 23.5375 12.375L22.7875 10.725L21.6875 8.3125L19.275 7.2125L15.7875 5.625L19.275 4.0375L20.1625 3.6375C18.5442 2.88941 16.7829 2.50132 15 2.5C8.1 2.5 2.5 8.1 2.5 15C2.5 21.9 8.1 27.5 15 27.5C21.9 27.5 27.5 21.9 27.5 15C27.5 13.1625 27.0875 11.4125 26.375 9.8375L25.9625 10.725V10.725Z"
      fill="white"
    />
    <path
      d="M18.75 17.8125C19.6129 17.8125 20.3125 17.1129 20.3125 16.25C20.3125 15.3871 19.6129 14.6875 18.75 14.6875C17.8871 14.6875 17.1875 15.3871 17.1875 16.25C17.1875 17.1129 17.8871 17.8125 18.75 17.8125Z"
      fill="white"
    />
    <path
      d="M25.75 7L24.375 10L23 7L20 5.625L23 4.25L24.375 1.25L25.75 4.25L28.75 5.625L25.75 7Z"
      fill="white"
    />
  </svg>