<svg width="50" height="50" viewBox="0 0 50 50" fill="none" xmlns="http://www.w3.org/2000/svg">
<circle cx="25" cy="25" r="25" fill="white"/>
<g filter="url(#filter0_dd_232_8086)">
<path d="M21.0494 31.0938V30.5114C21.0494 28.9015 21.1819 27.6184 21.4471 26.6619C21.7217 25.7055 22.1194 24.9384 22.6403 24.3608C23.1611 23.7737 23.7956 23.2386 24.5437 22.7557C25.1403 22.3769 25.6706 21.9934 26.1346 21.6051C26.6081 21.2074 26.9821 20.7812 27.2567 20.3267C27.5314 19.8722 27.6687 19.3561 27.6687 18.7784C27.6687 18.2197 27.5361 17.7273 27.271 17.3011C27.0058 16.875 26.6412 16.5483 26.1772 16.321C25.7227 16.0843 25.216 15.9659 24.6573 15.9659C24.0986 15.9659 23.573 16.0937 23.0806 16.3494C22.5977 16.6051 22.1999 16.9697 21.8874 17.4432C21.5844 17.9072 21.4281 18.4706 21.4187 19.1335H14.8846C14.913 17.1449 15.3723 15.5161 16.2624 14.2472C17.1621 12.9782 18.3505 12.0407 19.8278 11.4347C21.305 10.8191 22.9338 10.5114 24.7141 10.5114C26.6649 10.5114 28.3978 10.8144 29.913 11.4205C31.4376 12.0265 32.6355 12.9214 33.5067 14.1051C34.378 15.2888 34.8136 16.7377 34.8136 18.4517C34.8136 19.5786 34.6242 20.5729 34.2454 21.4347C33.8666 22.2964 33.3363 23.0587 32.6545 23.7216C31.9821 24.375 31.1914 24.9716 30.2823 25.5114C29.5721 25.928 28.9802 26.3636 28.5067 26.8182C28.0427 27.2727 27.6924 27.7936 27.4556 28.3807C27.2189 28.9583 27.1005 29.6686 27.1005 30.5114V31.0938H21.0494ZM24.1886 40.4119C23.1658 40.4119 22.2899 40.0521 21.5607 39.3324C20.841 38.6127 20.4859 37.7415 20.4954 36.7188C20.4859 35.715 20.841 34.858 21.5607 34.1477C22.2899 33.428 23.1658 33.0682 24.1886 33.0682C25.1639 33.0682 26.021 33.428 26.7596 34.1477C27.4982 34.858 27.8723 35.715 27.8817 36.7188C27.8723 37.4006 27.6924 38.0208 27.342 38.5795C27.0011 39.1383 26.5513 39.5833 25.9925 39.9148C25.4433 40.2462 24.842 40.4119 24.1886 40.4119Z" fill="#09090B"/>
</g>
<defs>
<filter id="filter0_dd_232_8086" x="10.8845" y="10.5114" width="27.929" height="37.9006" filterUnits="userSpaceOnUse" color-interpolation-filters="sRGB">
<feFlood flood-opacity="0" result="BackgroundImageFix"/>
<feColorMatrix in="SourceAlpha" type="matrix" values="0 0 0 0 0 0 0 0 0 0 0 0 0 0 0 0 0 0 127 0" result="hardAlpha"/>
<feMorphology radius="2" operator="erode" in="SourceAlpha" result="effect1_dropShadow_232_8086"/>
<feOffset dy="4"/>
<feGaussianBlur stdDeviation="3"/>
<feComposite in2="hardAlpha" operator="out"/>
<feColorMatrix type="matrix" values="0 0 0 0 0 0 0 0 0 0 0 0 0 0 0 0 0 0 0.05 0"/>
<feBlend mode="normal" in2="BackgroundImageFix" result="effect1_dropShadow_232_8086"/>
<feColorMatrix in="SourceAlpha" type="matrix" values="0 0 0 0 0 0 0 0 0 0 0 0 0 0 0 0 0 0 127 0" result="hardAlpha"/>
<feOffset dy="4"/>
<feGaussianBlur stdDeviation="2"/>
<feComposite in2="hardAlpha" operator="out"/>
<feColorMatrix type="matrix" values="0 0 0 0 0 0 0 0 0 0 0 0 0 0 0 0 0 0 0.1 0"/>
<feBlend mode="normal" in2="effect1_dropShadow_232_8086" result="effect2_dropShadow_232_8086"/>
<feBlend mode="normal" in="SourceGraphic" in2="effect2_dropShadow_232_8086" result="shape"/>
</filter>
</defs>
</svg>
