<svg width="354" height="41" viewBox="0 0 354 41" fill="none" xmlns="http://www.w3.org/2000/svg">
<path d="M37.3708 39.7308H28.0544L21.9133 18.9385H21.6203L11.9997 39.7308H0.866888L18.681 1.23049H28.1732L34.1291 21.9164H34.4807L44.0521 1.23049H55.1849L37.3708 39.7308ZM92.8013 20.4806C90.8821 24.6285 88.3351 28.1913 85.1603 31.1693C82.0051 34.1472 78.518 36.4072 74.699 37.9494C70.88 39.4915 67.0271 40.2626 63.1404 40.2626C59.2341 40.2626 56.0753 39.4915 53.6638 37.9494C51.2719 36.4072 49.8664 34.1472 49.4475 31.1693C49.048 28.1913 49.8079 24.6285 51.7271 20.4806C53.6463 16.3328 56.1835 12.7699 59.3387 9.79202C62.5135 6.8141 66.0104 4.55407 69.8294 3.01193C73.6484 1.46979 77.5208 0.698718 81.4466 0.698718C85.3333 0.698718 88.4726 1.46979 90.8645 3.01193C93.2565 4.55407 94.6521 6.8141 95.0516 9.79202C95.4706 12.7699 94.7205 16.3328 92.8013 20.4806ZM81.3169 20.4806C82.949 16.9532 83.4186 14.25 82.7254 12.3711C82.06 10.4745 80.2723 9.52613 77.3621 9.52613C74.4324 9.52613 71.7476 10.4745 69.3075 12.3711C66.8756 14.25 64.8436 16.9532 63.2114 20.4806C61.5793 24.0081 61.1057 26.7201 61.7906 28.6168C62.4837 30.4957 64.2951 31.4351 67.2248 31.4351C70.135 31.4351 72.7962 30.4957 75.2086 28.6168C77.6487 26.7201 79.6848 24.0081 81.3169 20.4806ZM121.044 1.23049L120.764 23.6181H121.291L141.728 1.23049H155.615L137.8 39.7308H126.902L137.384 17.0773H137.032L117.006 39.4649H110.326L111.149 16.9178H110.797L100.242 39.7308H89.3434L107.158 1.23049H121.044ZM141.961 39.7308L173.896 1.23049H189.072L185.32 39.7308H173.308L174.253 32.1796H160.044L154.031 39.7308H141.961ZM175.218 24.5221L176.832 11.6H176.481L166.166 24.5221H175.218ZM226.043 39.7308H216.726L210.585 18.9385H210.292L200.672 39.7308H189.539L207.353 1.23049H216.845L222.801 21.9164H223.153L232.724 1.23049H243.857L226.043 39.7308ZM248.368 1.23049H284.931L281.142 9.41978H268.368L254.343 39.7308H243.328L257.353 9.41978H244.579L248.368 1.23049ZM289.443 1.23049H300.575L286.551 31.5415H303.836L300.047 39.7308H271.629L289.443 1.23049ZM322.665 1.23049H352.958L349.169 9.41978H330.009L326.786 16.386H344.364L340.575 24.5753H322.997L319.773 31.5415H338.875L335.086 39.7308H304.851L322.665 1.23049Z" fill="url(#paint0_linear_160_17)"/>
<defs>
<linearGradient id="paint0_linear_160_17" x1="401.883" y1="20.6721" x2="31.2352" y2="-150.827" gradientUnits="userSpaceOnUse">
<stop stop-color="#BCAAFF"/>
<stop offset="1" stop-color="#94E1FF"/>
</linearGradient>
</defs>
</svg>
