  <svg
    xmlns="http://www.w3.org/2000/svg"
    width="30"
    height="30"
    viewBox="0 0 30 30"
    fill="none"
  >
    <path
      d="M15 3.75C12.0163 3.75 9.15483 4.93526 7.04505 7.04505C4.93526 9.15483 3.75 12.0163 3.75 15V23.75C3.75 25.125 4.875 26.25 6.25 26.25H11.25V16.25H6.25V15C6.25 10.1625 10.1625 6.25 15 6.25C19.8375 6.25 23.75 10.1625 23.75 15V16.25H18.75V26.25H23.75C25.125 26.25 26.25 25.125 26.25 23.75V15C26.25 12.0163 25.0647 9.15483 22.955 7.04505C20.8452 4.93526 17.9837 3.75 15 3.75V3.75Z"
      fill="white"
    />
  </svg>